HIERARCHY
ROOT Hips
{
	OFFSET 0.00000 0.00000 0.00000
	CHANNELS 6 Xposition Yposition Zposition Zrotation Yrotation Xrotation 
	JOINT LHipJoint
	{
		OFFSET 0 0 0
		CHANNELS 3 Zrotation Yrotation Xrotation
		JOINT LeftHip
		{
			OFFSET 1.58161 -1.81893 0.78828
			CHANNELS 3 Zrotation Yrotation Xrotation
			JOINT LeftKnee
			{
				OFFSET 2.53374 -6.96141 0.00000
				CHANNELS 3 Zrotation Yrotation Xrotation
				JOINT LeftAnkle
				{
					OFFSET 2.63509 -7.23986 0.00000
					CHANNELS 3 Zrotation Yrotation Xrotation
					JOINT LeftToe
					{
						OFFSET 0.14115 -0.38781 2.05350
						CHANNELS 3 Zrotation Yrotation Xrotation
						End Site
						{
							OFFSET 0.00000 -0.00000 1.05543
						}
					}
				}
			}
		}
	}
	JOINT RHipJoint
	{
		OFFSET 0 0 0
		CHANNELS 3 Zrotation Yrotation Xrotation
		JOINT RightHip
		{
			OFFSET -1.11138 -1.81893 0.78828
			CHANNELS 3 Zrotation Yrotation Xrotation
			JOINT RightKnee
			{
				OFFSET -2.58392 -7.09926 0.00000
				CHANNELS 3 Zrotation Yrotation Xrotation
				JOINT RightAnkle
				{
					OFFSET -2.66423 -7.31992 0.00000
					CHANNELS 3 Zrotation Yrotation Xrotation
					JOINT RightToe
					{
						OFFSET -0.18831 -0.51739 2.12114
						CHANNELS 3 Zrotation Yrotation Xrotation
						End Site
						{
							OFFSET -0.00000 -0.00000 1.09845
						}
					}
				}
			}
		}
	}
	JOINT lowerback
	{
		OFFSET 0 0 0
		CHANNELS 3 Zrotation Yrotation Xrotation
		JOINT Chest
		{
			OFFSET -0.01511 1.97958 -0.08829
			CHANNELS 3 Zrotation Yrotation Xrotation
			JOINT Chest2
			{
				OFFSET 0.08344 1.97334 -0.04330
				CHANNELS 3 Zrotation Yrotation Xrotation
				JOINT lowerneck
				{
					OFFSET 0 0 0
					CHANNELS 3 Zrotation Yrotation Xrotation
					JOINT Neck
					{
						OFFSET 0.00559 1.76246 0.31246
						CHANNELS 3 Zrotation Yrotation Xrotation
						JOINT Head
						{
							OFFSET -0.07011 1.80354 -0.30524
							CHANNELS 3 Zrotation Yrotation Xrotation
							End Site
							{
								OFFSET -0.02385 1.83547 -0.13906
							}
						}
					}
				}
				JOINT LeftCollar
				{
					OFFSET 0 0 0
					CHANNELS 3 Zrotation Yrotation Xrotation
					JOINT LeftShoulder
					{
						OFFSET 3.20667 1.30156 -0.60240
CHANNELS 3 Zrotation Xrotation Yrotation
						JOINT LeftElbow
						{
OFFSET 0 -4.956630 0.000000
CHANNELS 3 Zrotation Xrotation Yrotation
							JOINT LeftWrist
							{
OFFSET 0 -3.381770 0.000000
CHANNELS 3 Zrotation Xrotation Yrotation
								JOINT lhand
								{
									OFFSET 0 0 0
CHANNELS 3 Zrotation Xrotation Yrotation
									JOINT LFingers
									{
OFFSET 0 -0.662910 0.000000
CHANNELS 3 Zrotation Xrotation Yrotation
										End Site
										{
OFFSET 0 -0.534450 0.000000
										}
									}
								}
								JOINT LThumb
								{
OFFSET 0 0.000000 0.000000
CHANNELS 3 Zrotation Xrotation Yrotation
									End Site
									{
OFFSET 0 -0.542610 0.542610
									}
								}
							}
						}
					}
				}
				JOINT RightCollar
				{
					OFFSET 0 0 0
					CHANNELS 3 Zrotation Yrotation Xrotation
					JOINT RightShoulder
					{
						OFFSET -3.06877 1.34672 -0.60964
CHANNELS 3 Zrotation Xrotation Yrotation
						JOINT RightElbow
						{
OFFSET 0 -5.083650 0.000000
CHANNELS 3 Zrotation Xrotation Yrotation
							JOINT RightWrist
							{
OFFSET 0 -3.359840 0.000000
CHANNELS 3 Zrotation Xrotation Yrotation
								JOINT rhand
								{
									OFFSET 0 0 0
CHANNELS 3 Zrotation Xrotation Yrotation
									JOINT RFingers
									{
OFFSET 0 -0.820760 0.000000
CHANNELS 3 Zrotation Xrotation Yrotation
										End Site
										{
OFFSET 0 -0.661720 0.000000
										}
									}
								}
								JOINT RThumb
								{
OFFSET 0 0.000000 0.000000
CHANNELS 3 Zrotation Xrotation Yrotation
									End Site
									{
OFFSET 0 -0.671820 0.671820
									}
								}
							}
						}
					}
				}
			}
		}
	}
}
MOTION
Frames: 11
Frame Time: 0.008333333333333333
0.607300 18.167800 -8.539300 -1.724100 -4.418800 9.689200 0.000000 0.000000 0.000000 -15.137500 -4.233900 -12.332400 1.308600 7.246400 20.447600 0.515500 -3.936900 -12.791900 0.290900 -3.468500 -9.586000 0.000000 0.000000 0.000000 22.024400 6.213500 -14.059700 -1.811000 -8.460900 24.122900 -0.608500 -2.021300 -15.604600 -0.019000 -0.890000 2.446200 -2.646100 0.783300 -6.245300 4.145200 1.095600 -0.282000 5.907100 0.481500 3.083100 0.755100 1.199500 -15.331900 -6.554200 4.512700 42.173700 -2.392400 1.022600 18.820100 0.000000 -0.000000 0.000000 1.660300 0.907900 -22.932200 16.026900 -25.557100 3.657600 6.155400 -2.448400 -36.497000 0.000000 0.000000 0.000000 -7.125000 0.000000 0.000000 -34.185500 63.394300 16.200500 0.000000 -0.000000 0.000000 -6.855500 -0.951800 19.955700 -13.402500 -21.874000 -2.601300 -18.208900 -10.062700 -6.201200 0.000000 0.000000 0.000000 7.125000 0.000000 -0.000000 6.292900 23.462400 3.286300
0.618728 18.166490 -8.538281 -1.772358 -4.438817 9.757330 0.000000 0.000000 0.000000 -15.115955 -4.289437 -12.445149 1.322503 7.283158 20.557146 0.519067 -3.866296 -12.840886 0.344254 -3.765402 -10.418185 0.000000 0.000000 0.000000 22.022653 6.201636 -14.133580 -1.805541 -8.448817 24.085778 -0.613158 -1.929442 -15.615081 -0.024168 -1.001511 2.753001 -2.611598 0.800842 -6.263643 4.139086 1.117946 -0.338556 5.881988 0.495548 3.032731 0.806124 1.216605 -15.322656 -6.529525 4.512118 42.193426 -2.390799 1.034173 18.829635 0.000000 0.000000 0.000000 1.625071 0.999249 -22.873678 15.941156 -25.440785 3.620696 5.996577 -2.395629 -36.326021 0.000000 0.000000 0.000000 -7.125000 0.000000 0.000000 -34.141463 63.213713 16.033379 0.000000 0.000000 0.000000 -6.803238 -0.875955 19.898561 -13.437657 -21.925097 -2.614475 -18.234012 -10.122459 -6.396854 0.000000 0.000000 0.000000 7.125000 0.000000 0.000000 6.269972 23.256920 3.303842
0.629289 18.166000 -8.537946 -1.789215 -4.458879 9.820810 0.000000 0.000000 0.000000 -15.122302 -4.366304 -12.519112 1.330845 7.305240 20.622893 0.521722 -3.850565 -12.874833 0.314841 -3.592963 -9.935777 0.000000 0.000000 0.000000 21.989504 6.200299 -14.213157 -1.802908 -8.442978 24.067844 -0.613943 -1.864017 -15.592247 -0.027239 -1.065623 2.929410 -2.592593 0.813234 -6.226702 4.113009 1.135278 -0.416169 5.842201 0.508730 2.930223 0.967215 1.280790 -15.312500 -6.575812 4.576618 42.197883 -2.430489 1.080248 18.840857 0.000000 0.000000 0.000000 1.610852 1.116667 -22.799980 15.857918 -25.327614 3.585024 5.893174 -2.290673 -36.137313 0.000000 0.000000 0.000000 -7.125000 0.000000 0.000000 -34.022226 63.033172 15.827290 0.000000 0.000000 0.000000 -6.732473 -0.801933 19.845115 -13.453899 -21.948666 -2.620539 -18.303697 -10.214394 -6.678054 0.000000 0.000000 0.000000 7.125000 0.000000 0.000000 6.213044 22.959968 3.315778
0.638912 18.166790 -8.537357 -1.787157 -4.479446 9.872095 0.000000 0.000000 0.000000 -15.145211 -4.458918 -12.548487 1.335206 7.316798 20.657293 0.524659 -3.868442 -12.910395 0.236434 -3.114971 -8.600115 0.000000 0.000000 0.000000 21.941334 6.219995 -14.275420 -1.802457 -8.441951 24.064708 -0.611845 -1.842950 -15.556682 -0.028673 -1.093832 3.007067 -2.594592 0.813314 -6.167789 4.085720 1.137589 -0.495169 5.811317 0.514454 2.815388 1.115681 1.344897 -15.304445 -6.640980 4.653221 42.197724 -2.474542 1.126262 18.851487 0.000000 0.000000 0.000000 1.597149 1.245813 -22.720581 15.781631 -25.223685 3.552436 5.888236 -2.147214 -35.920978 0.000000 0.000000 0.000000 -7.125000 0.000000 0.000000 -33.773321 62.855430 15.557296 0.000000 0.000000 0.000000 -6.672641 -0.741395 19.842848 -13.458628 -21.955487 -2.622286 -18.399720 -10.319831 -6.952099 0.000000 0.000000 0.000000 7.125000 0.000000 0.000000 6.137285 22.669242 3.316250
0.647282 18.169920 -8.534810 -1.784610 -4.501428 9.895460 0.000000 0.000000 0.000000 -15.167848 -4.560457 -12.514350 1.337608 7.323130 20.676291 0.530045 -3.888823 -12.977360 0.159279 -2.561928 -7.061886 0.000000 0.000000 0.000000 21.904213 6.283393 -14.276294 -1.803476 -8.444135 24.071477 -0.608060 -1.906567 -15.542343 -0.028965 -1.099510 3.022789 -2.631423 0.786018 -6.141585 4.090160 1.104252 -0.541026 5.832790 0.499605 2.756285 1.031975 1.325462 -15.304227 -6.636540 4.650527 42.210898 -2.458455 1.111049 18.857383 0.000000 0.000000 0.000000 1.547799 1.363584 -22.651141 15.721509 -25.141581 3.526815 6.077048 -1.981985 -35.654137 0.000000 0.000000 0.000000 -7.125000 0.000000 0.000000 -33.273195 62.685907 15.166861 0.000000 0.000000 0.000000 -6.677954 -0.717593 19.985731 -13.462705 -21.961383 -2.623814 -18.494927 -10.408341 -7.053566 0.000000 0.000000 0.000000 7.125000 0.000000 0.000000 6.065880 22.558823 3.292667
0.656165 18.171451 -8.529768 -1.711217 -4.510750 9.894208 0.000000 0.000000 0.000000 -15.273096 -4.606688 -12.459176 1.336877 7.321087 20.670224 0.533130 -3.900507 -13.014912 0.157061 -2.552949 -7.036476 0.000000 0.000000 0.000000 21.794135 6.291675 -14.268344 -1.806925 -8.451753 24.094871 -0.609135 -1.940068 -15.572058 -0.029575 -1.110750 3.053537 -2.746132 0.733083 -6.220499 4.091275 1.041567 -0.513735 5.897486 0.464359 2.834396 0.938103 1.306284 -15.316221 -6.651218 4.654868 42.162179 -2.445374 1.094558 18.829071 0.000000 0.000000 0.000000 1.462898 1.374639 -22.529910 15.654544 -25.050013 3.498444 6.200705 -1.766628 -35.684937 0.000000 0.000000 0.000000 -7.125000 0.000000 0.000000 -33.182668 62.743371 15.164989 0.000000 0.000000 0.000000 -6.724509 -0.767067 20.217618 -13.478226 -21.983904 -2.629627 -18.611937 -10.441735 -6.990771 0.000000 0.000000 0.000000 7.125000 0.000000 0.000000 5.981175 22.619315 3.237945
0.664934 18.171476 -8.524162 -1.633125 -4.518026 9.880551 0.000000 0.000000 0.000000 -15.387424 -4.566815 -12.416113 1.333949 7.313330 20.647026 0.532186 -3.957339 -13.000171 0.167234 -2.633767 -7.260775 0.000000 0.000000 0.000000 21.679949 6.248514 -14.270962 -1.812326 -8.463650 24.131510 -0.616134 -1.887315 -15.629613 -0.035960 -1.216967 3.345994 -2.869562 0.698158 -6.326887 4.086899 1.003725 -0.459611 5.964600 0.439734 2.952834 0.892883 1.296029 -15.354476 -6.674712 4.659924 42.097256 -2.444426 1.085235 18.799698 0.000000 0.000000 0.000000 1.379395 1.321932 -22.414697 15.556479 -24.915523 3.457095 6.251477 -1.536987 -35.895535 0.000000 0.000000 0.000000 -7.125000 0.000000 0.000000 -33.376461 62.929023 15.410700 0.000000 0.000000 0.000000 -6.755615 -0.830683 20.338747 -13.499445 -22.014637 -2.637575 -18.701958 -10.465225 -6.978921 0.000000 0.000000 0.000000 7.125000 0.000000 0.000000 5.915455 22.627614 3.200767
0.673399 18.170048 -8.518415 -1.566098 -4.533150 9.857070 0.000000 0.000000 0.000000 -15.494677 -4.445731 -12.385591 1.329120 7.300635 20.609062 0.527115 -4.051020 -12.932402 0.176335 -2.705000 -7.458550 0.000000 0.000000 0.000000 21.576731 6.167995 -14.284604 -1.819751 -8.479978 24.181845 -0.628242 -1.750446 -15.706526 -0.048018 -1.411996 3.883253 -2.988241 0.692157 -6.436243 4.077896 1.004473 -0.394541 6.027513 0.433882 3.079824 0.900249 1.293130 -15.416474 -6.701875 4.660960 42.031350 -2.455513 1.082553 18.777547 0.000000 0.000000 0.000000 1.304207 1.229942 -22.321023 15.426287 -24.736579 3.402397 6.255926 -1.305788 -36.191229 0.000000 0.000000 0.000000 -7.125000 0.000000 0.000000 -33.717390 63.172258 15.777701 0.000000 0.000000 0.000000 -6.757730 -0.893311 20.304448 -13.520582 -22.045211 -2.645495 -18.753820 -10.473242 -7.044670 0.000000 0.000000 0.000000 7.125000 0.000000 0.000000 5.876490 22.556331 3.189165
0.681042 18.167355 -8.513174 -1.539312 -4.602371 9.827009 0.000000 0.000000 0.000000 -15.570231 -4.296806 -12.340389 1.323151 7.284840 20.562114 0.518817 -4.087123 -12.826859 0.165125 -2.617800 -7.216457 0.000000 0.000000 0.000000 21.507364 6.125123 -14.294576 -1.830087 -8.502761 24.251794 -0.640033 -1.590167 -15.770216 -0.060392 -1.582538 4.353318 -3.088762 0.737722 -6.480935 4.070981 1.073113 -0.365790 6.085743 0.465108 3.124370 0.930456 1.281120 -15.475942 -6.713157 4.636940 42.008786 -2.470143 1.076075 18.779440 0.000000 0.000000 0.000000 1.243065 1.196605 -22.284483 15.279329 -24.533719 3.341182 6.369329 -1.112172 -36.147847 0.000000 0.000000 0.000000 -7.125000 0.000000 0.000000 -33.550560 63.166580 15.685915 0.000000 0.000000 0.000000 -6.705177 -0.923227 20.040155 -13.514322 -22.036112 -2.643166 -18.747851 -10.393248 -7.145409 0.000000 0.000000 0.000000 7.125000 0.000000 0.000000 5.879474 22.451006 3.204960
0.689897 18.163560 -8.508154 -1.485366 -4.725307 9.792870 0.000000 0.000000 0.000000 -15.683138 -4.166173 -12.297226 1.320102 7.276758 20.538029 0.514927 -4.082347 -12.778172 0.160802 -2.583653 -7.121625 0.000000 0.000000 0.000000 21.397725 6.134974 -14.285596 -1.839542 -8.523560 24.315904 -0.647968 -1.485310 -15.814678 -0.054751 -1.505773 4.141677 -3.192091 0.787750 -6.495987 4.046492 1.148638 -0.362491 6.126179 0.501568 3.125063 0.980386 1.277869 -15.458447 -6.744162 4.625040 41.973991 -2.494745 1.076208 18.754558 0.000000 0.000000 0.000000 1.195475 1.235493 -22.270421 15.174570 -24.388650 3.297762 6.484221 -0.945826 -36.075818 0.000000 0.000000 0.000000 -7.125000 0.000000 0.000000 -33.348746 63.137764 15.558154 0.000000 0.000000 0.000000 -6.660943 -0.936505 19.871281 -13.486080 -21.995226 -2.632573 -18.765903 -10.356887 -7.185546 0.000000 0.000000 0.000000 7.125000 0.000000 0.000000 5.865711 22.408046 3.203126
0.699559 18.160331 -8.503818 -1.446282 -4.855571 9.761911 0.000000 0.000000 0.000000 -15.780664 -4.023459 -12.280869 1.320194 7.277064 20.538880 0.514209 -4.098594 -12.768768 0.159500 -2.573184 -7.092551 0.000000 0.000000 0.000000 21.303588 6.167865 -14.266068 -1.847458 -8.540879 24.369383 -0.653271 -1.412335 -15.843263 -0.044661 -1.361558 3.744212 -3.243938 0.835921 -6.478100 4.006349 1.218235 -0.379997 6.118410 0.537339 3.087693 1.048695 1.272610 -15.391361 -6.782004 4.604013 41.932034 -2.527290 1.075453 18.711345 0.000000 0.000000 0.000000 1.186559 1.315982 -22.290957 15.095885 -24.279430 3.265272 6.588242 -0.807310 -36.105882 0.000000 0.000000 0.000000 -7.125000 0.000000 0.000000 -33.278691 63.189672 15.562140 0.000000 0.000000 0.000000 -6.610069 -0.914552 19.804261 -13.467701 -21.968635 -2.625682 -18.792924 -10.367829 -7.179202 0.000000 0.000000 0.000000 7.125000 0.000000 0.000000 5.846010 22.413416 3.191558
